<svg width="584" height="675" viewBox="0 0 584 675" fill="none" xmlns="http://www.w3.org/2000/svg">
<path d="M381.106 0H191.726C176.87 0.0168095 162.628 5.9257 152.123 16.4303C141.619 26.935 135.71 41.1775 135.693 56.0333V73.151C135.304 73.044 134.896 73.0289 134.501 73.1067C134.105 73.1846 133.733 73.3533 133.414 73.5996C133.095 73.8459 132.837 74.163 132.661 74.5259C132.486 74.8888 132.397 75.2876 132.402 75.6907V88.8543C132.397 89.2574 132.486 89.6561 132.661 90.019C132.837 90.3819 133.095 90.699 133.414 90.9453C133.733 91.1916 134.105 91.3604 134.501 91.4382C134.896 91.5161 135.304 91.5009 135.693 91.3939V111.325C135.304 111.218 134.896 111.203 134.5 111.281C134.105 111.359 133.733 111.528 133.414 111.774C133.095 112.02 132.837 112.337 132.661 112.7C132.486 113.063 132.397 113.462 132.402 113.865V146.774C132.397 147.177 132.486 147.576 132.661 147.939C132.837 148.302 133.095 148.619 133.414 148.865C133.733 149.112 134.105 149.28 134.5 149.358C134.896 149.436 135.304 149.421 135.693 149.314V161.347C135.304 161.24 134.896 161.225 134.5 161.303C134.105 161.381 133.733 161.549 133.414 161.796C133.095 162.042 132.837 162.359 132.661 162.722C132.486 163.085 132.397 163.484 132.402 163.887V196.796C132.397 197.199 132.486 197.598 132.661 197.961C132.837 198.323 133.095 198.641 133.414 198.887C133.733 199.133 134.105 199.302 134.5 199.38C134.896 199.458 135.304 199.442 135.693 199.335V546.859C135.71 561.715 141.619 575.957 152.123 586.462C162.628 596.967 176.87 602.875 191.726 602.892H381.106C395.962 602.875 410.204 596.967 420.709 586.462C431.213 575.957 437.122 561.715 437.139 546.859V56.0333C437.122 41.1775 431.213 26.935 420.709 16.4303C410.204 5.9257 395.962 0.0168095 381.106 0V0ZM425.292 546.859C425.279 558.574 420.619 569.805 412.335 578.089C404.052 586.372 392.821 591.032 381.106 591.045H191.726C180.011 591.032 168.78 586.372 160.497 578.089C152.213 569.805 147.554 558.574 147.54 546.859V56.0333C147.554 44.3185 152.213 33.0873 160.497 24.8037C168.78 16.5201 180.011 11.8605 191.726 11.8472H381.106C392.821 11.8605 404.052 16.5201 412.335 24.8037C420.619 33.0873 425.279 44.3185 425.292 56.0333V546.859Z" fill="#D5D5D5"/>
<path d="M381.106 597.627H191.726C178.267 597.612 165.362 592.258 155.845 582.74C146.327 573.223 140.974 560.319 140.958 546.859V56.0333C140.974 42.5735 146.327 29.6694 155.845 20.1519C165.362 10.6344 178.267 5.2807 191.726 5.26543H381.106C394.566 5.2807 407.47 10.6343 416.987 20.1519C426.505 29.6694 431.858 42.5735 431.874 56.0333V546.859C431.858 560.319 426.505 573.223 416.987 582.74C407.47 592.258 394.566 597.612 381.106 597.627Z" fill="#E7E7E7"/>
<path d="M385.131 585.565H186.392C177.314 585.555 168.611 581.944 162.192 575.525C155.773 569.106 152.162 560.402 152.151 551.324V43.2408C152.162 34.1627 155.772 25.4594 162.192 19.0403C168.611 12.6211 177.314 9.01033 186.392 9.00003H212.31C213.81 9.00175 215.249 9.59856 216.31 10.6595C217.371 11.7205 217.968 13.159 217.969 14.6595C217.974 19.092 219.737 23.3416 222.872 26.4759C226.006 29.6102 230.255 31.3732 234.688 31.3781H334.203C338.635 31.3732 342.885 29.6102 346.019 26.4759C349.154 23.3416 350.917 19.092 350.922 14.6594C350.923 13.159 351.52 11.7205 352.581 10.6595C353.642 9.59855 355.08 9.00172 356.581 9H385.131C394.209 9.01029 402.913 12.6211 409.332 19.0402C415.751 25.4594 419.362 34.1627 419.372 43.2408V551.324C419.362 560.402 415.751 569.106 409.332 575.525C402.913 581.944 394.209 585.555 385.131 585.565Z" fill="white"/>
<path d="M294.972 24.6817H271.278C270.58 24.6817 269.91 24.4044 269.416 23.9106C268.923 23.4169 268.645 22.7473 268.645 22.049C268.645 21.3508 268.923 20.6811 269.416 20.1874C269.91 19.6937 270.58 19.4163 271.278 19.4163H294.972C295.671 19.4163 296.34 19.6937 296.834 20.1874C297.328 20.6811 297.605 21.3508 297.605 22.049C297.605 22.7473 297.328 23.4169 296.834 23.9106C296.34 24.4044 295.671 24.6817 294.972 24.6817Z" fill="white"/>
<path d="M311.427 24.0236C312.154 24.0236 312.743 23.4342 312.743 22.7072C312.743 21.9802 312.154 21.3908 311.427 21.3908C310.7 21.3908 310.111 21.9802 310.111 22.7072C310.111 23.4342 310.7 24.0236 311.427 24.0236Z" fill="white"/>
<path d="M426.429 116H146.142V119H426.429V116Z" fill="#E6E6E6"/>
<path d="M426.429 176H146.142V179H426.429V176Z" fill="#E6E6E6"/>
<path d="M348.685 302.477L238.632 522.364L241.315 523.706L351.368 303.82L348.685 302.477Z" fill="#E6E6E6"/>
<path d="M426.429 300H146.142V303H426.429V300Z" fill="#E6E6E6"/>
<path d="M370.151 300H209.151V304H370.151V300Z" fill="#838383"/>
<path d="M426.429 424H146.142V427H426.429V424Z" fill="#E6E6E6"/>
<path d="M426.429 521H146.142V524H426.429V521Z" fill="#E6E6E6"/>
<path d="M351.151 116H348.151V300H351.151V116Z" fill="#E6E6E6"/>
<path d="M209.378 301.446H206.378V522.5H209.378V301.446Z" fill="#E6E6E6"/>
<g clip-path="url(#clip0)">
<path d="M183.605 422.99L183.596 426.99L210.151 427.048L210.16 423.048L183.605 422.99Z" fill="#838383"/>
</g>
<path d="M210.151 300H206.151V424H210.151V300Z" fill="#838383"/>
<path d="M420.151 362H210.151V365H420.151V362Z" fill="#E6E6E6"/>
<path d="M350.016 522.5H347.016V589.729H350.016V522.5Z" fill="#E6E6E6"/>
<path d="M347.693 239.229H152.306V242.229H347.693V239.229Z" fill="#E6E6E6"/>
<path d="M193.11 11.2681L190.343 12.4263L234.557 118.079L237.325 116.921L193.11 11.2681Z" fill="#E6E6E6"/>
<path d="M329.283 35.5415H326.283V117.5H329.283V35.5415Z" fill="#E6E6E6"/>
<path d="M417.151 200.612C417.151 221.179 385.435 269.103 376.166 282.67C375.887 283.08 375.511 283.415 375.073 283.647C374.635 283.879 374.147 284 373.651 284C373.156 284 372.668 283.879 372.23 283.647C371.791 283.415 371.416 283.08 371.136 282.67C361.868 269.103 330.151 221.179 330.151 200.612C330.151 189.046 334.734 177.953 342.892 169.774C351.05 161.595 362.114 157 373.651 157C385.188 157 396.253 161.595 404.41 169.774C412.568 177.953 417.151 189.046 417.151 200.612Z" fill="#FFCC5F"/>
<path d="M373.651 221C386.078 221 396.151 211.15 396.151 199C396.151 186.85 386.078 177 373.651 177C361.225 177 351.151 186.85 351.151 199C351.151 211.15 361.225 221 373.651 221Z" fill="white"/>
<path d="M373.651 309C377.794 309 381.151 305.418 381.151 301C381.151 296.582 377.794 293 373.651 293C369.509 293 366.151 296.582 366.151 301C366.151 305.418 369.509 309 373.651 309Z" fill="#FFCC5F"/>
<path d="M532.661 158.861C527.232 166.097 503.393 174.563 496.543 176.883C496.336 176.954 496.115 176.972 495.899 176.938C495.683 176.903 495.479 176.817 495.304 176.686C495.129 176.555 494.989 176.383 494.896 176.185C494.803 175.988 494.759 175.77 494.768 175.552C495.08 168.326 496.544 143.071 501.974 135.835C505.027 131.766 509.572 129.076 514.609 128.358C519.645 127.639 524.761 128.951 528.83 132.005C532.9 135.058 535.589 139.603 536.308 144.639C537.026 149.676 535.714 154.792 532.661 158.861Z" fill="#D1D1D1"/>
<path d="M518.125 156.031C523.515 156.031 527.885 151.662 527.885 146.271C527.885 140.881 523.515 136.512 518.125 136.512C512.735 136.512 508.366 140.881 508.366 146.271C508.366 151.662 512.735 156.031 518.125 156.031Z" fill="white"/>
<path d="M489.444 188.871C491.86 188.871 493.819 186.912 493.819 184.496C493.819 182.08 491.86 180.121 489.444 180.121C487.028 180.121 485.069 182.08 485.069 184.496C485.069 186.912 487.028 188.871 489.444 188.871Z" fill="#CECECE"/>
<path d="M56.8283 357.34C64.8175 369.547 64.5622 410.341 64.3169 422.002C64.3099 422.354 64.2169 422.699 64.0462 423.007C63.8755 423.316 63.6322 423.578 63.3374 423.771C63.0426 423.964 62.7051 424.082 62.3543 424.115C62.0035 424.148 61.6499 424.095 61.3242 423.961C50.5394 419.519 13.0515 403.429 5.06227 391.223C2.83441 387.824 1.29814 384.019 0.541241 380.026C-0.215658 376.033 -0.178355 371.931 0.651028 367.952C1.48041 363.973 3.08561 360.197 5.3749 356.84C7.6642 353.482 10.5927 350.608 13.9931 348.382C17.3935 346.156 21.1992 344.623 25.1926 343.868C29.186 343.114 33.2889 343.154 37.2669 343.986C41.2449 344.818 45.0199 346.425 48.3763 348.717C51.7328 351.008 54.6048 353.939 56.8283 357.34Z" fill="#E7E7E7"/>
<path d="M29.7566 388.204C38.4488 388.204 45.4951 381.157 45.4951 372.465C45.4951 363.773 38.4488 356.727 29.7566 356.727C21.0645 356.727 14.0181 363.773 14.0181 372.465C14.0181 381.157 21.0645 388.204 29.7566 388.204Z" fill="white"/>
<path d="M71.961 444.001C75.8575 444.001 79.0162 440.842 79.0162 436.946C79.0162 433.049 75.8575 429.891 71.961 429.891C68.0645 429.891 64.9058 433.049 64.9058 436.946C64.9058 440.842 68.0645 444.001 71.961 444.001Z" fill="#E7E7E7"/>
<rect width="166" height="51" rx="20" transform="matrix(-1 0 0 1 380.151 336)" fill="#E3E3E5"/>
<path d="M228.663 370V368.584C229.799 367.688 230.871 366.784 231.879 365.872C232.903 364.944 233.807 364.032 234.591 363.136C235.391 362.24 236.015 361.36 236.463 360.496C236.927 359.632 237.159 358.8 237.159 358C237.159 357.408 237.055 356.856 236.847 356.344C236.655 355.832 236.335 355.424 235.887 355.12C235.439 354.8 234.831 354.64 234.063 354.64C233.327 354.64 232.711 354.808 232.215 355.144C231.719 355.464 231.343 355.896 231.087 356.44C230.847 356.984 230.727 357.568 230.727 358.192H228.783C228.783 357.088 229.015 356.144 229.479 355.36C229.943 354.56 230.575 353.952 231.375 353.536C232.175 353.12 233.079 352.912 234.087 352.912C235.575 352.912 236.791 353.336 237.735 354.184C238.695 355.016 239.175 356.264 239.175 357.928C239.175 358.92 238.927 359.904 238.431 360.88C237.935 361.84 237.303 362.776 236.535 363.688C235.767 364.584 234.943 365.424 234.063 366.208C233.199 366.992 232.391 367.696 231.639 368.32H239.751V370H228.663ZM248.893 370V358.096H250.717L250.861 359.824C251.245 359.184 251.757 358.688 252.397 358.336C253.037 357.984 253.757 357.808 254.557 357.808C255.501 357.808 256.309 358 256.981 358.384C257.669 358.768 258.197 359.352 258.565 360.136C258.981 359.416 259.549 358.848 260.269 358.432C261.005 358.016 261.797 357.808 262.645 357.808C264.069 357.808 265.205 358.24 266.053 359.104C266.901 359.952 267.325 361.264 267.325 363.04V370H265.333V363.256C265.333 362.024 265.085 361.096 264.589 360.472C264.093 359.848 263.381 359.536 262.453 359.536C261.493 359.536 260.693 359.912 260.053 360.664C259.429 361.4 259.117 362.456 259.117 363.832V370H257.101V363.256C257.101 362.024 256.853 361.096 256.357 360.472C255.861 359.848 255.149 359.536 254.221 359.536C253.277 359.536 252.485 359.912 251.845 360.664C251.221 361.4 250.909 362.456 250.909 363.832V370H248.893ZM271.586 355.456C271.186 355.456 270.85 355.328 270.578 355.072C270.322 354.8 270.194 354.464 270.194 354.064C270.194 353.68 270.322 353.36 270.578 353.104C270.85 352.848 271.186 352.72 271.586 352.72C271.97 352.72 272.298 352.848 272.57 353.104C272.842 353.36 272.978 353.68 272.978 354.064C272.978 354.464 272.842 354.8 272.57 355.072C272.298 355.328 271.97 355.456 271.586 355.456ZM270.578 370V358.096H272.594V370H270.578ZM276.104 370V358.096H277.928L278.048 360.232C278.432 359.48 278.984 358.888 279.704 358.456C280.424 358.024 281.24 357.808 282.152 357.808C283.56 357.808 284.68 358.24 285.512 359.104C286.36 359.952 286.784 361.264 286.784 363.04V370H284.768V363.256C284.768 360.776 283.744 359.536 281.696 359.536C280.672 359.536 279.816 359.912 279.128 360.664C278.456 361.4 278.12 362.456 278.12 363.832V370H276.104ZM294.399 370.288C292.975 370.288 291.791 369.928 290.847 369.208C289.903 368.488 289.351 367.512 289.191 366.28H291.255C291.383 366.904 291.711 367.448 292.239 367.912C292.783 368.36 293.511 368.584 294.423 368.584C295.271 368.584 295.895 368.408 296.295 368.056C296.695 367.688 296.895 367.256 296.895 366.76C296.895 366.04 296.631 365.56 296.103 365.32C295.591 365.08 294.863 364.864 293.919 364.672C293.279 364.544 292.639 364.36 291.999 364.12C291.359 363.88 290.823 363.544 290.391 363.112C289.959 362.664 289.743 362.08 289.743 361.36C289.743 360.32 290.127 359.472 290.895 358.816C291.679 358.144 292.735 357.808 294.063 357.808C295.327 357.808 296.359 358.128 297.159 358.768C297.975 359.392 298.447 360.288 298.575 361.456H296.583C296.503 360.848 296.239 360.376 295.791 360.04C295.359 359.688 294.775 359.512 294.039 359.512C293.319 359.512 292.759 359.664 292.359 359.968C291.975 360.272 291.783 360.672 291.783 361.168C291.783 361.648 292.031 362.024 292.527 362.296C293.039 362.568 293.727 362.8 294.591 362.992C295.327 363.152 296.023 363.352 296.679 363.592C297.351 363.816 297.895 364.16 298.311 364.624C298.743 365.072 298.959 365.728 298.959 366.592C298.975 367.664 298.567 368.552 297.735 369.256C296.919 369.944 295.807 370.288 294.399 370.288ZM312.15 370.288C311.158 370.288 310.334 370.12 309.678 369.784C309.022 369.448 308.534 369 308.214 368.44C307.894 367.88 307.734 367.272 307.734 366.616C307.734 365.4 308.198 364.464 309.126 363.808C310.054 363.152 311.318 362.824 312.918 362.824H316.134V362.68C316.134 361.64 315.862 360.856 315.318 360.328C314.774 359.784 314.046 359.512 313.134 359.512C312.35 359.512 311.67 359.712 311.094 360.112C310.534 360.496 310.182 361.064 310.038 361.816H307.974C308.054 360.952 308.342 360.224 308.838 359.632C309.35 359.04 309.982 358.592 310.734 358.288C311.486 357.968 312.286 357.808 313.134 357.808C314.798 357.808 316.046 358.256 316.878 359.152C317.726 360.032 318.15 361.208 318.15 362.68V370H316.35L316.23 367.864C315.894 368.536 315.398 369.112 314.742 369.592C314.102 370.056 313.238 370.288 312.15 370.288ZM312.462 368.584C313.23 368.584 313.886 368.384 314.43 367.984C314.99 367.584 315.414 367.064 315.702 366.424C315.99 365.784 316.134 365.112 316.134 364.408V364.384H313.086C311.902 364.384 311.062 364.592 310.566 365.008C310.086 365.408 309.846 365.912 309.846 366.52C309.846 367.144 310.07 367.648 310.518 368.032C310.982 368.4 311.63 368.584 312.462 368.584ZM323.34 370L319.86 358.096H321.876L324.396 367.432L327.18 358.096H329.46L332.268 367.432L334.764 358.096H336.804L333.324 370H331.26L328.332 360.184L325.404 370H323.34ZM342.572 370.288C341.58 370.288 340.756 370.12 340.1 369.784C339.444 369.448 338.956 369 338.636 368.44C338.316 367.88 338.156 367.272 338.156 366.616C338.156 365.4 338.62 364.464 339.548 363.808C340.476 363.152 341.74 362.824 343.34 362.824H346.556V362.68C346.556 361.64 346.284 360.856 345.74 360.328C345.196 359.784 344.468 359.512 343.556 359.512C342.772 359.512 342.092 359.712 341.516 360.112C340.956 360.496 340.604 361.064 340.46 361.816H338.396C338.476 360.952 338.764 360.224 339.26 359.632C339.772 359.04 340.404 358.592 341.156 358.288C341.908 357.968 342.708 357.808 343.556 357.808C345.22 357.808 346.468 358.256 347.3 359.152C348.148 360.032 348.572 361.208 348.572 362.68V370H346.772L346.652 367.864C346.316 368.536 345.82 369.112 345.164 369.592C344.524 370.056 343.66 370.288 342.572 370.288ZM342.884 368.584C343.652 368.584 344.308 368.384 344.852 367.984C345.412 367.584 345.836 367.064 346.124 366.424C346.412 365.784 346.556 365.112 346.556 364.408V364.384H343.508C342.324 364.384 341.484 364.592 340.988 365.008C340.508 365.408 340.268 365.912 340.268 366.52C340.268 367.144 340.492 367.648 340.94 368.032C341.404 368.4 342.052 368.584 342.884 368.584ZM352.541 375.28L355.493 368.848H354.797L350.069 358.096H352.253L356.189 367.36L360.365 358.096H362.453L354.653 375.28H352.541Z" fill="#505050"/>
<path d="M218.665 380.915C218.665 377.017 217.277 370 217.277 370L231.151 386.763C223.572 391.292 218.265 392.74 209.151 393C213.114 389.837 218.665 384.814 218.665 380.915Z" fill="#E2E1E6"/>
<path d="M180 437C187.18 437 193 431.18 193 424C193 416.82 187.18 411 180 411C172.82 411 167 416.82 167 424C167 431.18 172.82 437 180 437Z" fill="#FFCC5F" fill-opacity="0.33"/>
<path d="M180 430C183.314 430 186 427.314 186 424C186 420.686 183.314 418 180 418C176.686 418 174 420.686 174 424C174 427.314 176.686 430 180 430Z" fill="#FFCC5F"/>
<defs>
<clipPath id="clip0">
<rect width="4" height="26.5549" fill="white" transform="translate(183.596 426.99) rotate(-89.8742)"/>
</clipPath>
</defs>
</svg>
