<svg width="750" height="750" viewBox="0 0 750 750" fill="none" xmlns="http://www.w3.org/2000/svg">
<g clip-path="url(#clip0)">
<path d="M230.493 577H215V619.894C215 629.007 221.489 636.849 230.493 638.639C300.142 652.454 371.858 652.454 441.511 638.639C450.515 636.849 457 629.007 457 619.894V577H441.511C371.858 590.819 300.142 590.819 230.493 577Z" fill="#E7E7E7"/>
<path d="M336.002 359H58L63.3785 387.145C88.3081 517.607 202.756 612 336.002 612C469.247 612 583.688 517.607 608.625 387.145L614 359H336.002Z" fill="#F0F0F0"/>
<path d="M626 334.5C626 420.932 496.165 491 336.002 491C175.839 491 46 420.932 46 334.5C46 248.068 175.839 178 336.002 178C496.165 178 626 248.068 626 334.5Z" fill="#E7E7E7"/>
<path d="M614 351.498C593.197 423.71 476.659 479 336.002 479C195.345 479 78.8067 423.71 58 351.498C78.8067 279.287 195.345 224 336.002 224C476.659 224 593.197 279.287 614 351.498Z" fill="#FFC548"/>
<path d="M360.151 427.568L332.364 432.695C321.129 434.771 310.813 425.98 311.003 414.475L311.635 374.762L359.122 366L373.706 402.907C377.931 413.591 371.39 425.499 360.151 427.568Z" fill="#FCAF72"/>
<path d="M376.551 375.752L299.105 389.85C294.171 390.751 289.435 387.5 288.537 382.601L285.804 367.809C280.976 341.668 298.401 316.591 324.72 311.798C351.046 307.004 376.296 324.312 381.116 350.453L383.85 365.245C384.755 370.148 381.481 374.855 376.551 375.752Z" fill="#FF9139"/>
<path d="M446.175 385.011L426.429 370.749C418.44 364.984 417.79 353.435 425.077 346.822L450.252 324L484 348.375L469.646 379.01C465.492 387.885 454.157 390.781 446.175 385.011Z" fill="#FCAF72"/>
<path d="M488.529 364.494L434.182 324.528C430.72 321.985 429.967 317.093 432.497 313.606L440.129 303.088C453.626 284.507 479.542 280.448 498.014 294.031C516.483 307.613 520.52 333.688 507.016 352.277L499.383 362.791C496.85 366.281 491.99 367.041 488.529 364.494Z" fill="#FF9139"/>
<path d="M176.038 427H248L228.463 378.491C226.002 372.385 219.021 369.411 212.872 371.856L174.545 387.089C168.648 389.427 165.613 395.932 167.615 401.917L176.038 427Z" fill="#FCAF72"/>
<path d="M191 310.002C191 296.748 201.745 286 214.998 286C228.252 286 239 296.748 239 310.002C239 323.26 228.252 334 214.998 334C201.745 334 191 323.26 191 310.002Z" fill="#FF9139"/>
<path d="M541 359L610.735 254.855C622.645 237.077 639.644 223.311 659.513 215.365L665.393 213.017C678.988 207.583 694.477 213.472 701.023 226.56C707.974 240.458 702.338 257.356 688.436 264.303C673.217 271.914 660.052 283.069 650.043 296.824L604.84 359H541Z" fill="#E2E2E2"/>
<path d="M691 215.703C686.404 215.13 681.634 215.674 677.067 217.501L671.226 219.842C651.405 227.781 634.46 241.556 622.592 259.331L556.044 359H541L610.544 254.849C622.411 237.074 639.353 223.299 659.178 215.36L665.019 213.019C673.873 209.467 683.547 210.751 691 215.703Z" fill="#ECEBE6"/>
<path d="M329.999 142C323.372 142 318 136.584 318 129.908C318 117.177 322.635 110.177 326.015 105.064C328.668 101.056 329.999 99.0414 329.999 93.636C329.999 88.227 328.668 86.2159 326.015 82.2047C322.635 77.0913 318 70.0909 318 57.364C318 44.6333 322.635 37.633 326.015 32.5195C328.668 28.512 329.999 26.4973 329.999 21.0919C329.999 14.4127 335.371 9 341.998 9C348.624 9 354 14.4127 354 21.0919C354 33.8189 349.365 40.8193 345.982 45.9327C343.328 49.9402 341.998 51.9549 341.998 57.364C341.998 62.7694 343.328 64.7768 345.982 68.7916C349.365 73.905 354 80.9054 354 93.636C354 106.363 349.365 113.367 345.982 118.477C343.328 122.488 341.998 124.499 341.998 129.908C341.998 136.584 336.625 142 329.999 142Z" fill="#FFC548"/>
<path d="M244.999 154C238.372 154 233 148.587 233 141.911C233 129.18 237.635 122.18 241.015 117.066C243.668 113.059 244.999 111.044 244.999 105.635C244.999 100.229 243.668 98.2144 241.015 94.2068C237.635 89.0932 233 82.0926 233 69.3616C233 56.6343 237.635 49.6337 241.015 44.5202C243.668 40.5089 244.999 38.4978 244.999 33.0886C244.999 26.4129 250.375 21 257.001 21C263.628 21 269 26.4129 269 33.0886C269 45.8196 264.365 52.8201 260.985 57.9337C258.328 61.9413 257.001 63.9561 257.001 69.3616C257.001 74.7709 258.328 76.7783 260.985 80.7932C264.365 85.9068 269 92.9074 269 105.635C269 118.366 264.365 125.366 260.985 130.48C258.328 134.487 257.001 136.502 257.001 141.911C257.001 148.587 251.625 154 244.999 154Z" fill="#FFC548"/>
<path d="M414.002 154C407.376 154 402 148.587 402 141.911C402 129.18 406.635 122.18 410.018 117.066C412.672 113.059 414.002 111.044 414.002 105.635C414.002 100.229 412.672 98.2144 410.018 94.2068C406.635 89.0932 402 82.0926 402 69.3616C402 56.6343 406.635 49.6337 410.018 44.5202C412.672 40.5089 414.002 38.4978 414.002 33.0886C414.002 26.4129 419.375 21 426.001 21C432.628 21 438 26.4129 438 33.0886C438 45.8196 433.365 52.8201 429.985 57.9337C427.332 61.9413 426.001 63.9561 426.001 69.3616C426.001 74.7709 427.332 76.7783 429.985 80.7932C433.365 85.9068 438 92.9074 438 105.635C438 118.366 433.365 125.366 429.985 130.48C427.332 134.487 426.001 136.502 426.001 141.911C426.001 148.587 420.629 154 414.002 154Z" fill="#FFC548"/>
</g>
<defs>
<clipPath id="clip0">
<rect width="750" height="750" fill="white"/>
</clipPath>
</defs>
</svg>
