<svg width="460" height="405" viewBox="0 0 460 405" fill="none" xmlns="http://www.w3.org/2000/svg">
<path d="M433.228 73.1183V117.148H432.012V116.679H25.2161V117.148H24V73.1183C24.0052 68.0494 26.121 63.1894 29.883 59.6051C33.645 56.0208 38.7459 54.005 44.0662 54H413.162C418.483 54.005 423.583 56.0208 427.345 59.6051C431.107 63.1894 433.223 68.0494 433.228 73.1183Z" fill="#FFCC5F"/>
<path d="M413.162 54H44.0662C38.7459 54.005 33.645 56.0202 29.883 59.6035C26.121 63.1868 24.0052 68.0454 24 73.1129V324.477C24.0052 329.544 26.121 334.403 29.883 337.986C33.645 341.57 38.7459 343.585 44.0662 343.59H413.162C418.482 343.585 423.583 341.57 427.345 337.986C431.107 334.403 433.223 329.544 433.228 324.477V73.1129C433.223 68.0454 431.107 63.1868 427.345 59.6035C423.583 56.0202 418.482 54.005 413.162 54V54ZM432.012 324.477C432.006 329.237 430.018 333.8 426.484 337.166C422.95 340.532 418.16 342.425 413.162 342.431H44.0662C39.0688 342.425 34.2779 340.532 30.7442 337.166C27.2105 333.8 25.2225 329.237 25.2161 324.477V73.1129C25.2225 68.3529 27.2105 63.7897 30.7442 60.4238C34.2779 57.058 39.0688 55.1644 44.0662 55.1584H413.162C418.16 55.1644 422.95 57.058 426.484 60.4238C430.018 63.7897 432.006 68.3529 432.012 73.1129V324.477Z" fill="#B8B8B8"/>
<path d="M106.517 97.3747C113.186 97.3747 118.592 92.0914 118.592 85.5742C118.592 79.057 113.186 73.7737 106.517 73.7737C99.8473 73.7737 94.4409 79.057 94.4409 85.5742C94.4409 92.0914 99.8473 97.3747 106.517 97.3747Z" fill="white"/>
<path d="M350.712 97.3747C357.381 97.3747 362.787 92.0914 362.787 85.5742C362.787 79.057 357.381 73.7737 350.712 73.7737C344.043 73.7737 338.636 79.057 338.636 85.5742C338.636 92.0914 344.043 97.3747 350.712 97.3747Z" fill="white"/>
<path d="M141.86 214.741H69.1602C66.0802 214.738 63.1275 213.571 60.9496 211.497C58.7718 209.423 57.5468 206.61 57.5433 203.677V170.95C57.5468 168.016 58.7718 165.204 60.9496 163.13C63.1275 161.055 66.0802 159.889 69.1602 159.885H141.86C144.94 159.889 147.893 161.055 150.071 163.13C152.249 165.204 153.474 168.016 153.477 170.95V203.677C153.474 206.61 152.249 209.423 150.071 211.497C147.893 213.571 144.94 214.738 141.86 214.741V214.741Z" fill="#FFCC5F"/>
<path d="M264.71 214.741H192.518C189.46 214.738 186.528 213.571 184.365 211.497C182.203 209.423 180.986 206.61 180.983 203.677V170.95C180.986 168.016 182.203 165.204 184.365 163.13C186.528 161.055 189.46 159.889 192.518 159.885H264.71C267.768 159.889 270.701 161.055 272.863 163.13C275.026 165.204 276.242 168.016 276.246 170.95V203.677C276.242 206.61 275.026 209.423 272.863 211.497C270.701 213.571 267.768 214.738 264.71 214.741V214.741Z" fill="#FFCC5F"/>
<path d="M141.512 298.939H68.8372C65.6651 298.936 62.6238 297.735 60.3808 295.599C58.1377 293.463 56.876 290.567 56.8724 287.546V254.838C56.876 251.818 58.1377 248.922 60.3808 246.786C62.6238 244.65 65.6651 243.449 68.8372 243.445H141.512C144.685 243.449 147.726 244.65 149.969 246.786C152.212 248.922 153.474 251.818 153.477 254.838V287.546C153.474 290.567 152.212 293.463 149.969 295.599C147.726 297.735 144.685 298.936 141.512 298.939V298.939Z" fill="#F2F2F2"/>
<path d="M388.391 298.939H315.716C312.544 298.936 309.503 297.735 307.26 295.599C305.016 293.463 303.755 290.567 303.751 287.546V254.838C303.755 251.818 305.016 248.922 307.26 246.786C309.503 244.65 312.544 243.449 315.716 243.445H388.391C391.563 243.449 394.605 244.65 396.848 246.786C399.091 248.922 400.352 251.818 400.356 254.838V287.546C400.352 290.567 399.091 293.463 396.848 295.599C394.605 297.735 391.563 298.936 388.391 298.939V298.939Z" fill="#F2F2F2"/>
<path d="M388.391 214.741H315.716C312.544 214.738 309.503 213.537 307.26 211.401C305.016 209.265 303.755 206.369 303.751 203.348V170.64C303.755 167.62 305.016 164.724 307.26 162.588C309.503 160.452 312.544 159.251 315.716 159.247H388.391C391.563 159.251 394.605 160.452 396.848 162.588C399.091 164.724 400.352 167.62 400.356 170.64V203.348C400.352 206.369 399.091 209.265 396.848 211.401C394.605 213.537 391.563 214.738 388.391 214.741Z" fill="#F2F2F2"/>
<path d="M105.51 205.811C116.44 205.811 125.301 197.53 125.301 187.313C125.301 177.097 116.44 168.815 105.51 168.815C94.5803 168.815 85.7197 177.097 85.7197 187.313C85.7197 197.53 94.5803 205.811 105.51 205.811Z" fill="white"/>
<path d="M103.691 194.33C103.256 194.331 102.832 194.196 102.484 193.947L102.462 193.932L97.9172 190.612C97.7064 190.458 97.5295 190.266 97.3964 190.047C97.2634 189.828 97.177 189.586 97.142 189.335C97.1071 189.084 97.1243 188.829 97.1928 188.585C97.2612 188.34 97.3795 188.111 97.5408 187.91C97.7022 187.709 97.9035 187.54 98.1333 187.414C98.363 187.287 98.6166 187.205 98.8797 187.172C99.1428 187.139 99.4101 187.155 99.6664 187.221C99.9227 187.286 100.163 187.399 100.373 187.554L103.317 189.707L110.274 181.051C110.436 180.85 110.637 180.682 110.866 180.555C111.096 180.429 111.349 180.347 111.612 180.313C111.875 180.28 112.142 180.297 112.399 180.362C112.655 180.428 112.895 180.541 113.105 180.695L113.062 180.751L113.106 180.695C113.531 181.007 113.809 181.466 113.879 181.972C113.949 182.479 113.805 182.991 113.48 183.396L105.297 193.578C105.108 193.813 104.864 194.002 104.586 194.133C104.307 194.263 104.001 194.331 103.691 194.33V194.33Z" fill="#FFCC5F"/>
<path d="M265.3 298.939H192.6C189.52 298.936 186.567 297.769 184.389 295.695C182.211 293.621 180.986 290.808 180.983 287.875V255.148C180.986 252.214 182.211 249.402 184.389 247.328C186.567 245.253 189.52 244.086 192.6 244.083H265.3C268.38 244.086 271.332 245.253 273.51 247.328C275.688 249.402 276.913 252.214 276.917 255.148V287.875C276.913 290.808 275.688 293.621 273.51 295.695C271.332 297.769 268.38 298.936 265.3 298.939V298.939Z" fill="#FFCC5F"/>
<path d="M228.95 290.009C239.88 290.009 248.74 281.727 248.74 271.511C248.74 261.295 239.88 253.013 228.95 253.013C218.02 253.013 209.159 261.295 209.159 271.511C209.159 281.727 218.02 290.009 228.95 290.009Z" fill="white"/>
<path d="M227.13 278.528C226.695 278.529 226.271 278.394 225.923 278.145L225.902 278.13L221.357 274.81C221.146 274.656 220.969 274.464 220.836 274.245C220.703 274.026 220.616 273.784 220.581 273.533C220.546 273.282 220.564 273.027 220.632 272.783C220.701 272.538 220.819 272.309 220.98 272.108C221.142 271.907 221.343 271.738 221.573 271.612C221.802 271.485 222.056 271.403 222.319 271.37C222.582 271.336 222.849 271.353 223.106 271.419C223.362 271.484 223.602 271.597 223.813 271.751L226.757 273.905L233.714 265.249C233.875 265.048 234.076 264.88 234.306 264.753C234.535 264.627 234.789 264.544 235.052 264.511C235.315 264.478 235.582 264.495 235.838 264.56C236.094 264.626 236.334 264.739 236.545 264.892L236.501 264.949L236.546 264.893C236.97 265.205 237.248 265.664 237.318 266.17C237.388 266.676 237.245 267.189 236.92 267.594L228.736 277.776C228.547 278.011 228.304 278.2 228.025 278.331C227.747 278.461 227.44 278.529 227.13 278.528V278.528Z" fill="#FFCC5F"/>
<path d="M228.95 205.811C239.88 205.811 248.74 197.387 248.74 186.994C248.74 176.602 239.88 168.177 228.95 168.177C218.02 168.177 209.159 176.602 209.159 186.994C209.159 197.387 218.02 205.811 228.95 205.811Z" fill="white"/>
<path d="M227.129 194.33C226.694 194.331 226.27 194.196 225.922 193.947L225.9 193.932L221.355 190.612C220.93 190.301 220.652 189.842 220.581 189.336C220.511 188.829 220.654 188.317 220.98 187.911C221.306 187.505 221.787 187.24 222.318 187.173C222.849 187.106 223.386 187.243 223.811 187.554L226.756 189.707L233.713 181.051C233.875 180.85 234.076 180.682 234.306 180.555C234.535 180.429 234.789 180.347 235.052 180.313C235.314 180.28 235.582 180.297 235.838 180.362C236.094 180.428 236.334 180.541 236.545 180.695L236.501 180.751L236.546 180.695C236.97 181.007 237.248 181.466 237.318 181.972C237.388 182.479 237.245 182.991 236.919 183.396L228.736 193.578C228.546 193.813 228.303 194.003 228.024 194.133C227.746 194.263 227.439 194.331 227.129 194.33V194.33Z" fill="#FFCC5F"/>
</svg>
